<?xml version="1.0" standalone="no"?>
<svg xmlns="http://www.w3.org/2000/svg" viewBox="0 0 139.152 29" width="139.152" height="29"><g fill="#185d11" color="#185d11" transform="translate(0, 0) scale(0.5576924)"><svg width="52.0" height="52.0" x="0.0" y="0.0" viewBox="0 0 52 52"><path fill="currentColor" fill-rule="evenodd" d="M48.231 30.94l-.26 1.04c0 .173-.087.173-.087.173v-.173c.867-7.973-10.4-12.566-22.966-12.566-2.514 0-5.2.173-7.714.606-3.986.607-7.02 1.56-9.186 2.6.26 2.774 2.773 3.12 4.333 3.12h.52c2.253-.086 5.027-.52 6.413-.693.174 0 .434-.087.52-.087 1.56-.173 3.207-.346 4.767-.346 7.02 0 14.04 1.905 17.767 6.153 3.639 4.16 2.426 9.013-2.514 13.26-4.506 3.813-10.314 4.592-13.347 4.767h-.693c-3.293 0-6.153-.954-6.673-1.214-4.853-1.906-4.16-5.113-1.473-6.846 2.166-1.387 4.853-1.994 7.366-1.994 4.506 0 8.494 1.907 8.06 4.42-.26 1.734-2.34 2.687-3.987 2.687-.433 0-.867-.087-1.213-.261l-.087-.086c-.086-.173-.173-.26-.606-.433a5.446 5.446 0 0 0-1.647-.26c-1.56 0-3.206.607-3.64 1.473-.26.606.26 1.04.954 1.3.78.26 1.646.347 2.426.347.954 0 1.734-.087 2.167-.174 5.027-.867 9.446-3.206 11.267-5.286 1.473-1.733 1.126-4.16-2.947-6.067-3.467-1.733-7.887-2.08-11.18-2.08-2.167 0-3.813.174-4.42.26-.433.087-3.207.434-6.24.434h-.693c-1.04 0-1.994-.087-3.034-.261-2.773-.346-5.98-2.686-6.933-6.067a12.367 12.367 0 0 1-.173-.952v-.52c-.087-2.774-.26-6.674 1.646-9.36 3.814-5.287 11.614-7.627 19.587-7.627 11.093 0 22.62 4.68 24.18 12.827.086 0 .693 3.726-.26 7.886M23.791 3.207a22.726 22.726 0 0 1 20.02 8.493c-5.113-3.033-11.613-4.853-18.633-4.68-6.327.087-12.134 1.734-16.987 4.42 3.813-4.506 9.273-7.626 15.6-8.233m28.08 20.28c-.52-5.027-2.427-9.793-5.633-13.78A25.978 25.978 0 0 0 25.958 0c-.867 0-1.647 0-2.514.087-6.846.693-13.086 3.987-17.506 9.36C1.518 14.82-.562 21.58.13 28.427 1.344 41.947 12.698 52 25.958 52c.866 0 1.646 0 2.513-.086 6.933-.695 13.173-3.987 17.593-9.361a26.535 26.535 0 0 0 5.807-19.066"></path></svg></g><line x1="41" y1="1" x2="41" y2="28" stroke="#36b434" stroke-linecap="round"></line><path fill="#36b434" fill-rule="nonzero" d="M10.79 1.62Q12.26 3.10 12.26 5.95Q12.26 8.81 10.79 10.28Q9.31 11.76 6.62 11.76L6.62 11.76L3.34 11.76L3.34 17.23L0 17.23L0 0.14L6.62 0.14Q9.31 0.14 10.79 1.62ZM8.93 5.95L8.93 5.95Q8.93 3.12 6.46 3.12L6.46 3.12L3.34 3.12L3.34 8.76L6.46 8.76Q7.66 8.76 8.29 8.11Q8.93 7.46 8.93 5.95ZM24.19 10.34L28.01 17.23L24.14 17.23L20.81 10.90L18.41 10.90L18.41 17.23L15.07 17.23L15.07 3.82Q15.07 1.90 15.96 1.02Q16.85 0.14 18.94 0.14L18.94 0.14L21.77 0.14Q24.31 0.14 25.81 1.69Q27.31 3.24 27.31 5.62L27.31 5.62Q27.31 7.34 26.41 8.60Q25.51 9.86 24.19 10.34L24.19 10.34ZM21.55 8.11Q22.61 8.11 23.29 7.38Q23.98 6.65 23.98 5.56Q23.98 4.46 23.32 3.79Q22.66 3.12 21.55 3.12L21.55 3.12L19.90 3.12Q18.41 3.12 18.41 4.63L18.41 4.63L18.41 8.11L21.55 8.11ZM43.30 7.90L43.30 7.90L43.30 9.19Q43.30 13.49 41.68 15.43Q40.06 17.38 36.48 17.38Q32.90 17.38 31.31 15.43Q29.71 13.49 29.71 9.12L29.71 9.12L29.71 7.87Q29.71 3.89 31.33 1.94Q32.95 0 36.47 0Q39.98 0 41.64 1.97Q43.30 3.94 43.30 7.90ZM39.96 9.12L39.96 9.12L39.96 8.23Q39.96 5.93 39.38 4.56L39.38 4.56Q38.71 2.98 36.50 2.98L36.50 2.98Q34.27 2.98 33.60 4.56L33.60 4.56Q33.05 5.86 33.05 8.23L33.05 8.23L33.05 9.12Q33.05 12.22 33.91 13.30L33.91 13.30Q34.25 13.75 34.91 14.08Q35.57 14.40 36.49 14.40Q37.42 14.40 38.06 14.09Q38.71 13.78 39.07 13.32Q39.43 12.86 39.62 12.12L39.62 12.12Q39.96 10.94 39.96 9.12ZM61.90 0.14L65.38 0.14L60.79 17.23L58.01 17.23L54.86 6.86L51.72 17.23L48.94 17.23L44.38 0.14L47.86 0.14L50.50 10.92L53.11 2.02Q53.54 0.02 54.94 0.02L54.94 0.02Q55.63 0.02 55.99 0.54Q56.35 1.06 56.64 2.02L56.64 2.02L59.23 10.92L61.90 0.14ZM70.85 0.14L70.85 17.23L67.51 17.23L67.51 0.14L70.85 0.14ZM84.82 0.14L88.15 0.14L88.15 15.50Q88.15 16.30 87.67 16.86Q87.19 17.42 86.54 17.42L86.54 17.42Q84.89 17.42 83.83 15.50L83.83 15.50L77.93 6.26L77.93 17.23L74.59 17.23L74.59 0.14L77.81 0.14L84.82 11.33L84.82 0.14Z" transform="translate(51, 5.884)"></path></svg>